<?xml version="1.0" standalone="no"?>
<!DOCTYPE svg PUBLIC "-//W3C//DTD SVG 20010904//EN"
 "http://www.w3.org/TR/2001/REC-SVG-20010904/DTD/svg10.dtd">
<svg version="1.0" xmlns="http://www.w3.org/2000/svg"
 width="300.000000pt" height="244.000000pt" viewBox="0 0 300.000000 244.000000"
 preserveAspectRatio="xMidYMid meet">
<metadata>
Created by potrace 1.10, written by Peter Selinger 2001-2011
</metadata>
<g transform="translate(0.000000,244.000000) scale(0.100000,-0.100000)"
fill="#000000" stroke="none">
<path d="M1460 2394 c-62 -27 -256 -49 -508 -59 -86 -3 -111 0 -148 16 -37 17
-50 18 -84 9 -33 -9 -45 -8 -72 6 -26 14 -58 17 -157 16 -105 -1 -129 -4 -159
-22 l-35 -21 -24 23 c-16 15 -35 22 -59 21 -42 -1 -64 -19 -78 -65 -8 -25 -18
-34 -37 -36 -59 -7 -85 -90 -42 -134 l21 -21 -20 -38 c-17 -33 -20 -60 -21
-168 -1 -144 4 -159 70 -186 32 -13 33 -16 33 -69 0 -38 -11 -88 -36 -158 -33
-96 -67 -246 -66 -293 1 -56 34 -201 66 -293 25 -70 36 -120 36 -158 0 -53 -1
-55 -35 -70 -60 -25 -69 -49 -68 -190 1 -103 5 -131 21 -162 l20 -38 -24 -27
c-13 -16 -24 -39 -24 -51 0 -33 37 -76 65 -76 19 0 28 -10 43 -44 23 -51 32
-58 79 -59 26 -1 41 5 55 23 l19 23 39 -22 c35 -19 55 -22 163 -23 96 0 131 3
155 16 26 14 39 14 76 5 37 -9 49 -8 82 9 34 16 57 18 164 16 115 -3 306 -18
390 -31 19 -2 61 -13 93 -24 56 -19 58 -19 115 0 71 24 290 49 476 54 125 4
143 2 173 -15 29 -18 39 -19 78 -9 38 10 50 9 78 -5 25 -14 57 -17 153 -16
116 1 148 7 186 34 15 11 20 9 33 -8 36 -53 106 -37 136 31 16 35 25 45 44 45
29 0 65 43 65 78 0 14 -11 38 -26 53 l-25 26 23 39 c20 34 23 53 24 153 0 134
-11 167 -68 194 -37 17 -38 18 -38 72 0 39 12 92 40 173 36 104 61 219 61 277
0 53 -26 171 -62 279 -26 79 -39 136 -39 173 0 52 1 55 33 68 66 27 72 42 71
185 -1 108 -5 135 -22 168 l-20 38 24 23 c14 13 24 35 24 51 0 37 -34 78 -68
82 -20 2 -30 11 -38 36 -15 46 -36 64 -79 65 -28 1 -42 -5 -57 -23 -16 -20
-22 -22 -36 -12 -38 27 -72 33 -187 34 -95 1 -127 -2 -153 -16 -27 -14 -39
-15 -73 -6 -34 9 -47 8 -82 -9 -36 -16 -58 -19 -147 -16 -253 9 -446 32 -512
59 -45 19 -54 19 -98 0z m63 -8 c12 -32 308 -76 508 -76 110 0 129 -2 129 -16
0 -13 -22 -15 -175 -13 -97 1 -177 0 -180 -2 -6 -7 -195 2 -191 9 2 4 -16 5
-41 3 -31 -2 -48 1 -54 10 -7 12 -9 12 -9 1 0 -10 -13 -13 -49 -10 -27 1 -47
0 -45 -3 2 -4 -35 -7 -82 -8 -47 -1 -89 -2 -92 -2 -4 -1 -11 0 -17 1 -5 1 -90
1 -187 0 -149 -1 -178 1 -178 13 0 12 34 15 183 20 162 6 272 19 426 53 27 5
33 4 29 -7 -3 -9 -18 -13 -44 -12 l-39 3 48 -14 c39 -11 55 -11 95 1 40 11 42
13 11 9 -35 -4 -69 17 -69 44 0 15 17 12 23 -4z m-1308 -26 c-4 -6 1 -7 11 -3
17 6 44 -19 44 -43 0 -20 -29 -44 -45 -38 -20 8 -19 31 1 42 20 11 3 25 -20
16 -27 -10 -30 -43 -5 -65 36 -31 59 -24 114 36 l51 55 125 -3 c101 -3 129 -7
152 -22 24 -16 34 -17 61 -7 18 7 42 12 53 12 23 0 83 -31 83 -42 0 -12 -15
-9 -28 4 -7 7 -12 8 -12 4 0 -5 8 -15 18 -22 15 -12 14 -13 -11 -14 -24 0 -27
3 -21 24 7 31 -17 40 -62 21 -23 -10 -34 -20 -34 -35 0 -12 -4 -18 -10 -15 -5
3 -23 -4 -39 -16 -46 -34 -95 -2 -69 45 13 22 38 20 38 -4 0 -11 -4 -20 -10
-20 -5 0 -7 8 -4 18 5 14 4 14 -4 2 -13 -17 -6 -30 14 -30 15 0 16 2 18 40 2
20 -3 25 -24 27 -14 1 -33 -5 -42 -14 -9 -8 -22 -12 -29 -7 -8 4 -10 3 -5 -4
4 -7 2 -12 -3 -12 -6 0 -11 -7 -11 -15 0 -8 -5 -15 -11 -15 -6 0 -8 -9 -4 -20
9 -28 -1 -25 -35 10 -17 17 -30 28 -30 25 0 -3 -16 2 -36 10 l-37 15 -34 -40
c-19 -22 -41 -39 -48 -38 -8 2 -14 -1 -13 -6 0 -5 -6 -12 -14 -17 -9 -6 -6 -8
9 -6 12 0 19 5 17 9 -3 4 6 8 20 8 32 0 35 -27 4 -33 -13 -2 -8 -3 10 -1 32 3
44 -12 17 -22 -13 -5 -13 -8 0 -27 8 -12 15 -27 15 -34 0 -18 -35 -16 -50 2
-11 13 -14 13 -26 -2 -13 -17 -15 -17 -29 1 -8 11 -15 16 -15 11 0 -5 -5 -4
-11 2 -8 8 -7 17 2 34 7 13 13 33 14 43 2 17 1 18 -11 2 -9 -13 -13 -14 -18
-4 -3 7 -3 3 0 -9 6 -27 -13 -66 -28 -57 -6 4 -8 3 -4 -4 3 -6 -7 -20 -24 -32
-28 -20 -29 -23 -15 -43 8 -12 15 -29 15 -37 0 -9 11 -27 25 -40 31 -29 32
-44 4 -35 -15 5 -19 4 -15 -4 4 -6 1 -11 -6 -11 -14 -1 -58 -64 -58 -84 0 -20
22 -34 51 -33 19 2 25 6 21 20 -6 22 -18 22 -26 0 -5 -12 -10 -13 -18 -5 -19
19 -1 44 29 40 26 -3 28 -7 32 -53 2 -27 5 -117 5 -200 1 -141 -1 -154 -26
-215 -22 -56 -26 -81 -26 -165 0 -84 4 -109 26 -165 25 -61 27 -74 26 -215 0
-82 -3 -172 -5 -200 -4 -48 -5 -50 -34 -50 -23 0 -30 5 -30 19 0 11 6 21 12
24 8 2 13 -5 13 -18 0 -24 15 -19 22 8 4 14 -2 18 -31 18 -32 1 -37 -3 -39
-23 -2 -28 37 -93 56 -93 7 0 10 -5 6 -12 -5 -8 0 -9 14 -6 29 8 28 -3 -3 -32
-14 -13 -25 -31 -25 -40 0 -9 -6 -25 -14 -35 -13 -18 -10 -23 31 -62 35 -32
44 -47 40 -63 -4 -16 -2 -19 7 -11 7 6 16 7 21 3 4 -4 0 6 -10 21 -14 21 -15
31 -6 40 6 6 11 7 11 2 0 -5 7 0 15 11 14 18 16 18 29 1 12 -15 15 -15 26 -2
15 18 50 20 50 2 0 -7 -6 -22 -14 -32 -12 -17 -12 -21 3 -31 23 -17 9 -26 -22
-15 -17 7 -28 7 -32 1 -4 -6 5 -10 18 -10 14 0 24 -6 24 -15 0 -18 -38 -20
-54 -4 -9 9 -11 7 -6 -9 3 -12 11 -18 18 -16 7 3 30 -15 50 -40 33 -38 40 -43
52 -30 8 8 21 14 29 14 22 0 27 3 56 32 32 33 42 35 33 8 -4 -11 -2 -20 4 -20
6 0 11 -6 11 -12 1 -12 63 -58 79 -58 4 0 15 8 25 19 18 20 12 51 -9 51 -20 0
-25 -14 -13 -30 8 -12 9 -12 4 2 -3 10 -1 18 4 18 6 0 10 -9 10 -20 0 -25 -26
-26 -40 -1 -7 15 -5 25 9 43 l19 23 38 -20 c21 -11 42 -19 46 -17 5 1 8 -6 6
-15 -2 -12 9 -24 33 -36 45 -22 73 -14 65 19 -6 21 -3 24 21 24 25 -1 26 -2
11 -14 -10 -7 -18 -17 -18 -22 0 -4 5 -3 12 4 13 13 28 16 28 5 0 -13 -60 -43
-83 -43 -24 0 -83 19 -107 35 -12 7 -13 6 -3 -7 11 -12 8 -18 -21 -33 -28 -15
-39 -17 -60 -7 -15 7 -28 8 -31 2 -7 -12 -141 -11 -172 1 -15 5 -21 14 -17 21
4 6 3 8 -3 5 -6 -4 -24 11 -42 33 -36 45 -63 50 -99 20 -26 -21 -23 -54 4 -64
23 -9 40 5 20 16 -20 11 -21 34 -1 42 17 6 45 -19 45 -40 0 -19 -36 -54 -55
-54 -20 0 -65 44 -65 64 0 23 11 46 20 41 5 -3 11 -1 15 4 3 6 -6 7 -22 4 -45
-10 -73 -6 -94 13 -24 22 -24 56 0 78 28 25 66 17 66 -13 0 -32 -23 -39 -33
-10 -11 27 -26 9 -17 -20 9 -28 35 -34 58 -14 11 10 17 13 14 6 -9 -15 9 -27
18 -13 5 8 12 7 23 -2 13 -11 14 -11 7 1 -6 11 -4 13 9 8 9 -4 15 -3 11 2 -3
5 1 12 7 15 13 5 -23 1 -52 -6 -10 -2 -14 6 -15 29 0 26 -11 42 -53 81 -50 46
-52 51 -54 103 0 30 0 61 1 69 1 8 2 41 2 73 0 65 21 97 63 97 52 0 50 106 -3
273 -22 69 -41 150 -43 186 -3 48 -9 66 -23 74 -18 10 -18 10 0 23 14 10 20
30 23 76 2 35 21 117 43 185 27 86 39 140 39 182 0 75 -6 91 -37 91 -13 0 -21
4 -18 10 3 5 0 7 -9 4 -21 -8 -35 24 -35 86 0 30 -1 62 -2 70 -1 8 -1 39 -1
69 2 51 4 56 58 107 46 45 55 58 50 79 -3 13 -2 27 4 30 5 3 10 2 10 -4 0 -12
19 -9 45 7 19 12 19 13 -4 6 -18 -5 -22 -3 -15 7 6 11 5 12 -7 2 -22 -18 -44
4 -26 26 8 10 8 12 1 8 -12 -7 -24 13 -24 39 0 17 44 64 60 64 6 0 8 -4 5 -10z
m2630 -15 c14 -13 25 -31 25 -39 0 -26 -12 -46 -24 -39 -6 3 -7 2 -3 -2 4 -5
26 -8 48 -6 68 5 105 -52 60 -93 -28 -25 -66 -17 -66 13 0 32 23 39 34 9 8
-21 10 -21 16 -5 5 11 1 25 -11 39 -14 16 -15 20 -4 16 8 -2 21 -15 27 -29 9
-16 13 -19 13 -8 0 24 -28 44 -64 45 -17 1 -25 -1 -18 -3 9 -3 7 -12 -8 -30
-11 -14 -20 -32 -20 -40 0 -8 25 -39 56 -68 52 -51 55 -56 53 -97 -2 -24 0
-49 4 -54 3 -6 2 -25 -2 -42 -5 -17 -7 -49 -4 -70 4 -32 1 -44 -16 -61 -11
-11 -32 -21 -46 -21 -20 0 -25 -6 -31 -36 -11 -58 3 -142 41 -252 26 -73 36
-120 36 -163 1 -47 5 -64 20 -77 18 -16 18 -16 0 -34 -15 -13 -19 -32 -20 -78
0 -43 -11 -91 -37 -167 -36 -106 -52 -208 -40 -257 5 -19 13 -26 32 -26 14 0
22 -4 19 -10 -3 -5 0 -7 9 -4 21 8 39 -32 33 -72 -3 -19 -2 -48 3 -65 5 -18 6
-37 3 -43 -4 -5 -6 -30 -4 -54 2 -41 -1 -46 -54 -98 -45 -43 -56 -59 -52 -76
4 -12 2 -27 -4 -34 -7 -8 -6 -14 1 -19 8 -5 7 -11 -2 -23 -9 -11 -9 -14 -1 -9
17 11 27 -36 14 -62 -30 -55 -111 -41 -111 19 0 16 31 39 45 34 20 -8 19 -31
-2 -43 -17 -9 -17 -10 -1 -16 10 -4 15 -12 12 -17 -4 -6 2 -5 14 1 12 6 24 17
28 24 5 9 4 9 -7 -1 -21 -19 -34 -14 -16 6 22 24 21 31 -5 53 -34 30 -58 23
-109 -34 l-49 -52 -122 -1 c-107 -1 -127 1 -157 19 -29 17 -38 18 -65 9 -45
-16 -72 -15 -104 5 -15 9 -28 18 -30 19 -1 0 0 9 4 18 3 9 17 16 30 16 21 0
23 -4 18 -24 -7 -29 15 -40 52 -26 34 13 52 32 46 49 -3 8 0 11 6 7 7 -4 25 3
41 15 33 24 66 19 76 -12 7 -20 -9 -49 -27 -49 -16 0 -21 32 -7 41 11 7 11 9
-3 9 -19 0 -20 -1 -22 -40 -2 -21 2 -26 24 -25 31 1 90 35 90 53 0 6 5 12 11
12 6 0 9 9 6 20 -7 29 7 25 37 -10 14 -17 28 -30 31 -30 25 1 36 -2 48 -14 13
-13 19 -10 46 25 18 22 37 36 43 33 7 -5 8 -2 3 6 -6 10 -4 12 8 7 11 -4 17
-1 17 7 0 8 -10 11 -30 8 -22 -3 -30 0 -30 11 0 9 10 18 23 20 12 2 7 3 -10 1
-33 -3 -45 12 -18 22 13 5 13 8 0 27 -8 12 -15 27 -15 34 0 16 32 17 48 1 8
-8 15 -8 26 1 12 10 20 9 41 -5 15 -10 24 -23 21 -31 -4 -8 -6 -22 -6 -31 0
-15 -2 -15 -10 -2 -6 9 -10 10 -10 3 0 -25 21 -23 30 4 6 15 31 46 55 68 l46
40 -16 47 c-9 25 -24 49 -33 53 -14 5 -14 4 1 -13 9 -10 18 -28 20 -40 2 -12
6 -25 10 -28 4 -4 7 -12 7 -18 -1 -17 -30 26 -30 44 0 9 -11 27 -25 40 -31 29
-32 44 -4 35 15 -5 19 -4 15 4 -4 6 0 11 8 11 9 0 16 5 16 11 0 5 4 7 10 4 5
-3 7 0 4 8 -3 8 2 20 11 27 18 15 20 44 3 58 -13 10 -69 12 -64 2 2 -3 6 -14
10 -25 8 -19 8 -19 17 4 7 18 13 21 21 13 17 -17 1 -42 -26 -42 -30 0 -51 32
-37 57 5 10 5 26 0 40 -4 12 -8 84 -8 159 0 126 2 142 29 208 24 62 28 86 28
171 0 87 -3 110 -28 172 -27 66 -29 81 -29 207 0 75 4 147 8 159 5 14 5 30 0
40 -14 25 7 57 37 57 27 0 43 -25 26 -42 -8 -8 -13 -7 -18 5 -8 22 -20 22 -26
-1 -4 -14 2 -18 31 -18 32 -1 37 2 39 24 1 14 -5 33 -14 43 -9 10 -13 23 -8
30 4 8 3 10 -4 5 -7 -4 -12 -2 -12 3 0 6 -7 11 -16 11 -8 0 -12 5 -8 11 4 8 0
9 -15 4 -28 -9 -27 6 4 35 14 13 25 31 25 40 0 8 7 25 15 37 14 20 12 23 -21
48 -20 15 -44 47 -55 72 l-19 44 -50 -42 c-27 -23 -50 -48 -50 -56 0 -23 33 1
65 46 29 42 42 53 31 25 -3 -8 1 -22 9 -30 21 -21 19 -29 -11 -49 -20 -13 -28
-14 -40 -4 -11 9 -18 9 -26 1 -7 -7 -20 -12 -31 -12 -14 0 -17 5 -11 23 3 12
11 27 15 33 6 8 4 14 -6 18 -29 11 -15 25 23 21 26 -3 30 -2 12 3 -37 11 -38
34 -1 30 17 -1 29 2 28 7 -1 6 -6 9 -11 7 -13 -4 -36 19 -29 31 3 5 1 7 -5 3
-6 -3 -20 7 -32 24 -19 27 -23 28 -36 15 -9 -8 -26 -15 -39 -15 -12 0 -25 -7
-29 -15 -3 -8 -10 -15 -16 -15 -6 0 -3 12 7 28 l17 27 -22 -19 c-12 -11 -22
-14 -22 -9 0 6 7 16 15 23 8 7 12 16 9 21 -2 5 5 11 18 13 13 3 32 7 43 9 14
3 12 5 -8 6 -32 1 -83 -22 -90 -41 -2 -7 2 -26 10 -41 13 -27 11 -47 -7 -47
-4 0 -6 9 -3 20 3 11 0 20 -6 20 -6 0 -11 6 -11 13 0 17 -59 51 -90 52 -22 1
-26 -4 -24 -25 2 -39 3 -40 22 -40 14 0 14 2 3 9 -14 9 -9 41 7 41 18 0 34
-29 27 -49 -10 -31 -43 -36 -76 -12 -16 12 -34 19 -41 15 -6 -4 -9 -1 -6 7 6
17 -12 36 -46 49 -37 14 -59 3 -52 -26 5 -20 3 -24 -18 -24 -13 0 -27 7 -30
16 -4 9 -5 18 -4 18 2 1 15 10 30 19 32 20 59 21 104 5 27 -10 37 -9 61 7 22
15 52 20 139 22 112 4 171 -7 158 -29 -4 -6 -3 -8 3 -5 6 4 24 -11 42 -33 36
-45 65 -51 99 -21 26 22 27 29 5 53 -18 20 -5 25 16 6 11 -10 12 -10 7 -1 -4
7 -16 18 -28 24 -12 6 -18 7 -14 1 3 -5 -2 -13 -12 -17 -16 -6 -16 -7 1 -16
21 -12 22 -35 2 -43 -17 -6 -45 19 -45 40 0 19 36 54 55 54 9 0 27 -11 40 -25z
m-478 -124 c33 -17 68 -13 88 9 10 11 23 20 29 20 6 0 17 -9 24 -20 15 -25 33
-25 65 0 59 47 118 31 101 -27 -9 -35 -5 -115 7 -127 13 -14 98 -17 120 -5 50
26 78 -41 39 -91 -24 -31 -25 -58 -3 -82 15 -17 15 -19 -1 -37 -15 -16 -18
-48 -22 -208 l-5 -188 29 -80 c26 -71 29 -91 26 -180 -1 -80 -7 -114 -29 -170
-26 -69 -26 -73 -21 -258 4 -161 7 -192 22 -208 16 -18 16 -20 -5 -43 l-23
-24 26 -45 c14 -24 26 -53 26 -65 0 -27 -33 -46 -57 -33 -22 11 -110 8 -122
-5 -12 -12 -16 -81 -7 -122 15 -63 -40 -80 -101 -32 -33 26 -48 25 -67 -2
l-16 -22 -29 22 c-17 12 -37 22 -46 22 -23 0 -87 -35 -109 -59 -24 -27 -38
-27 -54 0 -11 17 -20 20 -45 15 -18 -3 -61 -5 -97 -4 -83 4 -449 4 -560 0 -47
-1 -240 -1 -429 1 -321 3 -344 2 -355 -15 -14 -22 -29 -23 -47 -2 -23 27 -87
64 -112 64 -13 0 -32 -9 -42 -20 -23 -25 -37 -25 -53 0 -15 25 -33 25 -65 0
-59 -47 -118 -31 -101 27 9 35 5 115 -7 127 -13 14 -98 17 -120 5 -50 -26 -78
41 -39 91 24 30 25 53 5 70 -19 16 -19 29 1 51 12 14 16 53 20 206 l5 188 -29
80 c-26 71 -29 91 -27 180 2 81 8 113 29 169 27 69 27 72 22 259 -4 159 -7
192 -21 207 -16 18 -16 21 4 46 21 27 21 30 -11 76 -38 54 -13 110 39 90 36
-14 110 -13 122 2 14 19 20 95 8 125 -22 60 39 79 100 31 32 -25 50 -25 65 0
7 11 18 20 24 20 6 0 19 -9 29 -20 32 -35 93 -20 144 34 30 31 42 33 59 5 11
-17 20 -20 45 -15 18 3 61 5 97 4 91 -4 457 -3 565 1 50 2 185 0 300 -3 116
-4 253 -3 305 2 53 5 99 5 105 1 17 -16 45 -9 67 16 l22 25 35 -34 c20 -18 46
-39 58 -45z m-2215 30 c-11 -7 -10 -9 3 -15 9 -3 13 -11 10 -17 -5 -7 -13 -5
-25 6 -20 18 -47 11 -55 -16 -9 -29 6 -47 17 -20 10 29 33 22 33 -10 0 -18 -6
-25 -26 -27 -50 -6 -77 51 -42 90 11 12 30 18 57 18 26 0 36 -3 28 -9z m2802
-1987 c44 -43 -15 -118 -76 -95 l-23 8 23 7 c12 4 27 4 33 1 13 -9 49 23 49
44 0 10 -5 7 -13 -8 -6 -14 -19 -27 -27 -29 -11 -4 -10 0 4 16 12 14 16 28 11
39 -6 16 -8 16 -16 -4 -10 -26 -27 -30 -35 -8 -16 40 37 62 70 29z m-1597
-114 c35 0 62 -3 60 -7 -3 -5 41 -8 98 -8 57 0 101 3 99 7 -6 10 133 13 354
10 158 -3 192 -6 192 -18 0 -11 -28 -14 -147 -16 -82 -2 -175 -2 -208 -2 -38
1 -53 -2 -40 -7 17 -6 15 -8 -10 -8 -59 -2 -220 -41 -231 -56 -6 -8 -14 -15
-18 -15 -11 0 -6 28 7 33 9 4 8 8 -3 16 -22 15 -6 23 24 11 15 -5 35 -10 44
-9 9 1 0 6 -20 11 -21 6 -38 15 -38 20 0 7 -4 7 -12 0 -7 -6 -29 -15 -48 -21
l-35 -10 34 2 c22 1 36 -3 39 -12 4 -11 -2 -12 -29 -7 -19 4 -79 16 -134 25
-55 10 -91 20 -80 23 11 2 -7 4 -40 4 -33 -1 -126 0 -207 2 -123 2 -148 5
-148 17 0 12 30 15 188 18 103 2 200 2 216 0 16 -2 57 -3 93 -3z"/>
<path d="M395 2344 c11 -3 30 -7 42 -10 13 -2 22 -10 20 -16 -1 -7 4 -12 11
-13 6 0 12 -3 12 -7 0 -31 -1 -32 -10 -18 -5 8 -12 11 -16 7 -4 -4 -1 -14 7
-23 14 -13 17 -12 27 10 17 37 -11 66 -68 71 -25 3 -36 2 -25 -1z"/>
<path d="M257 2150 c27 -44 63 -70 63 -47 0 8 -19 30 -42 49 l-43 33 22 -35z"/>
<path d="M71 1988 c-1 -9 10 -30 23 -45 20 -23 27 -26 38 -15 11 11 10 12 -5
6 -14 -5 -16 -2 -10 12 5 13 3 16 -10 11 -11 -4 -19 2 -26 21 -6 16 -10 20
-10 10z"/>
<path d="M63 1937 c4 -10 7 -25 7 -33 0 -9 4 -13 9 -10 5 4 12 0 15 -6 3 -7 3
-2 0 12 -4 13 -14 31 -22 40 -14 14 -15 13 -9 -3z"/>
<path d="M154 1758 c10 -14 17 -48 18 -93 l2 -70 3 64 c4 63 -10 121 -29 121
-5 0 -2 -10 6 -22z"/>
<path d="M159 1570 c-1 -14 -1 -33 -1 -43 1 -11 -2 -16 -10 -11 -7 4 -8 3 -4
-5 8 -13 -2 -53 -12 -47 -4 2 -8 -6 -8 -17 -1 -12 -9 -48 -19 -81 -12 -44 -14
-68 -7 -95 l10 -36 1 41 c1 42 53 199 63 189 3 -3 2 14 -2 37 -5 24 -4 48 0
53 5 6 5 17 0 25 -8 12 -10 10 -11 -10z"/>
<path d="M97 1155 c-5 -26 -2 -59 9 -95 9 -30 17 -65 18 -77 0 -11 4 -19 8
-17 10 6 20 -34 12 -47 -5 -8 -3 -9 6 -4 9 6 10 2 5 -16 -4 -13 -4 -21 0 -17
11 10 24 88 14 82 -5 -3 -9 1 -9 10 0 8 -9 36 -21 63 -11 26 -24 73 -28 103
l-7 55 -7 -40z"/>
<path d="M172 765 c-1 -45 -8 -79 -18 -93 -8 -12 -11 -22 -6 -22 19 0 33 58
29 121 l-3 64 -2 -70z"/>
<path d="M70 524 c0 -7 -3 -21 -7 -31 -6 -15 -4 -16 9 -5 21 17 29 49 12 49
-8 0 -14 -6 -14 -13z"/>
<path d="M91 484 c-12 -15 -21 -34 -20 -43 0 -9 5 -4 10 11 7 17 16 25 24 22
9 -4 13 1 12 15 -2 26 -1 26 -26 -5z"/>
<path d="M135 491 c3 -5 -1 -16 -9 -24 -8 -8 -13 -17 -10 -19 2 -3 0 -18 -6
-33 -9 -25 -9 -26 5 -15 8 7 15 22 15 33 0 11 7 28 15 37 14 16 14 18 0 24 -9
3 -14 2 -10 -3z"/>
<path d="M297 329 c-9 -6 -24 -24 -33 -41 l-16 -31 32 23 c44 31 58 72 17 49z"/>
<path d="M463 168 c-23 -30 -26 -43 -6 -25 16 14 22 15 25 5 7 -17 -1 -38 -13
-38 -6 0 -7 5 -3 12 4 7 3 8 -5 4 -6 -4 -9 -11 -6 -16 3 -5 -4 -12 -17 -14
-13 -3 -32 -7 -43 -9 -15 -4 -13 -5 7 -6 64 -3 106 36 84 77 -10 19 -15 21
-23 10z"/>
<path d="M2807 2236 c-14 -11 -15 -16 -5 -22 26 -16 38 -13 28 6 -7 13 -6 20
3 23 6 3 8 6 2 6 -5 0 -18 -6 -28 -13z"/>
<path d="M2940 1998 c0 -27 -19 -63 -20 -38 0 13 -2 13 -9 0 -6 -8 -7 -18 -4
-24 4 -6 -1 -6 -13 -2 -16 6 -17 5 -6 -6 11 -11 18 -8 38 15 21 24 34 77 19
77 -3 0 -5 -10 -5 -22z"/>
<path d="M2854 1524 c-5 -18 4 -58 25 -119 17 -51 31 -111 32 -132 l1 -38 11
34 c9 27 7 46 -7 95 -10 34 -18 71 -19 83 -1 11 -5 19 -9 17 -10 -6 -20 34
-12 47 5 8 3 9 -6 4 -9 -5 -10 -2 -5 14 3 11 4 21 1 21 -3 0 -9 -12 -12 -26z"/>
<path d="M2911 1155 c-1 -22 -15 -78 -31 -125 -32 -92 -35 -117 -19 -140 8
-12 9 -10 4 9 -5 17 -4 22 5 16 9 -5 11 -4 6 4 -9 13 2 53 13 47 4 -3 7 3 8
12 0 9 9 47 19 83 14 53 16 73 7 100 l-11 34 -1 -40z"/>
<path d="M2885 500 c-3 -6 1 -7 10 -4 11 4 14 2 9 -9 -3 -8 -1 -18 5 -22 6 -3
11 -1 11 6 0 21 12 2 20 -33 7 -30 8 -30 9 -7 1 26 -32 79 -49 79 -5 0 -12 -4
-15 -10z"/>
<path d="M2700 325 c0 -13 59 -65 74 -65 11 0 -43 68 -60 74 -8 3 -14 -1 -14
-9z"/>
<path d="M2789 232 c6 -11 7 -22 3 -26 -3 -4 2 -4 12 0 14 5 17 4 12 -4 -4 -7
-5 -12 -2 -12 3 0 10 9 16 20 6 11 7 19 3 18 -4 -1 -18 4 -31 11 -22 12 -23
11 -13 -7z"/>
<path d="M2533 157 c-5 -12 -8 -28 -6 -35 7 -19 58 -42 90 -41 20 1 22 3 8 6
-11 2 -30 6 -43 9 -13 2 -20 8 -18 13 3 5 -1 14 -9 21 -8 7 -15 17 -15 23 0 5
10 2 21 -9 22 -19 22 -19 10 3 -17 32 -27 35 -38 10z"/>
</g>
</svg>
